<?xml version="1.0" standalone="no"?>
<!DOCTYPE svg PUBLIC "-//W3C//DTD SVG 20010904//EN"
 "http://www.w3.org/TR/2001/REC-SVG-20010904/DTD/svg10.dtd">
<svg version="1.0" xmlns="http://www.w3.org/2000/svg"
 width="511.000000pt" height="447.000000pt" viewBox="0 0 511.000000 447.000000"
 preserveAspectRatio="xMidYMid meet">

<g transform="translate(0.000000,447.000000) scale(0.100000,-0.100000)"
fill="#000000" stroke="none">
<path d="M713 4442 c-29 -2 -53 -7 -53 -12 0 -5 -92 -652 -205 -1438 -113
-786 -205 -1438 -205 -1450 0 -22 2 -22 203 -22 111 0 222 -5 246 -11 123 -28
231 -111 283 -217 31 -63 33 -72 33 -177 0 -90 -4 -120 -23 -165 -44 -112
-152 -199 -287 -235 -45 -11 -115 -15 -287 -15 l-228 0 -2 203 -3 202 -78
-540 c-43 -297 -78 -543 -77 -548 0 -6 5051 1 5058 8 2 1 -19 154 -45 339
l-48 336 -287 0 -288 0 0 410 0 410 95 0 95 0 0 -330 0 -330 180 0 c100 0 180
4 180 9 0 14 -511 3565 -513 3567 -3 4 -3688 9 -3744 6z m998 -647 c175 -62
264 -267 186 -427 -15 -31 -46 -73 -68 -93 -40 -36 -41 -37 -34 -88 47 -351
257 -731 479 -866 284 -171 562 -94 798 224 117 155 225 431 253 642 7 51 6
52 -34 88 -158 143 -113 408 85 506 71 35 198 35 268 -1 145 -74 212 -240 159
-395 -15 -45 -76 -118 -139 -166 -16 -12 -23 -32 -28 -77 -10 -91 -61 -289
-102 -400 -160 -428 -437 -713 -779 -803 -110 -28 -279 -29 -390 0 -105 27
-263 106 -350 175 -264 210 -461 586 -529 1012 -10 66 -19 91 -32 99 -46 25
-122 113 -137 160 -25 73 -22 179 7 240 39 82 117 150 197 174 52 14 142 13
190 -4z m329 -2265 c36 -6 92 -24 125 -40 57 -28 126 -83 124 -98 -1 -4 -27
-31 -59 -60 l-58 -53 -45 34 c-119 91 -304 70 -386 -44 -59 -81 -65 -198 -14
-291 33 -60 75 -94 139 -114 61 -18 118 -18 182 1 l52 16 0 124 0 125 90 0 90
0 0 -170 0 -170 -38 -25 c-133 -88 -361 -105 -507 -36 -311 146 -325 590 -25
750 101 54 207 70 330 51z m-680 -420 l0 -410 -100 0 -100 0 0 410 0 410 100
0 100 0 0 -410z m1290 0 l0 -410 -100 0 -100 0 0 410 0 410 100 0 100 0 0
-410z m810 330 l0 -80 -130 0 -130 0 0 -330 0 -330 -100 0 -100 0 0 330 0 329
-127 3 -128 3 -3 78 -3 77 361 0 360 0 0 -80z m692 -324 c98 -220 178 -404
178 -408 0 -5 -45 -7 -101 -6 l-101 3 -32 80 -32 80 -191 3 -191 2 -34 -82
-35 -83 -101 -3 c-95 -3 -101 -2 -94 16 4 10 86 194 182 410 l175 393 99 -3
99 -3 179 -399z"/>
<path d="M3855 1285 c-70 -165 -105 -251 -105 -257 0 -5 56 -8 124 -8 l124 0
-55 133 c-30 72 -59 141 -63 152 -7 18 -10 15 -25 -20z"/>
<path d="M390 1109 l0 -251 133 4 c128 3 136 4 183 33 69 43 107 108 112 191
8 121 -37 206 -132 250 -45 21 -66 24 -173 24 l-123 0 0 -251z"/>
</g>
</svg>
